<svg xmlns="http://www.w3.org/2000/svg" xmlns:svg="http://www.w3.org/2000/svg" xmlns:xlink="http://www.w3.org/1999/xlink" version="1.0" height="755pt" width="989.5pt" viewBox="320 27 997.5 761" ><defs><style type="text/css">
            @font-face {
                font-family: 'noto_regular';
                src: url('https://app.creately.com/diagram/assets/fonts/noto/noto-regular.woff') format('woff'),
                     url('https://app.creately.com/diagram/assets/fonts/noto/noto-regular.woff2') format('woff2');
                font-weight: normal;
                font-style: normal;
            }
        p {
            margin: 0;
        }
        </style></defs><defs><style>
            span{ display: inline-block; }
        </style></defs><g id="80e1eokq6b"><g transform="translate(720 30)"><ellipse cx="15" cy="15" rx="15" ry="15" fill="rgba(69,178,157,1)" stroke="#45b29d" stroke-width="2" stroke-linecap="round" stroke-linejoin="round"/></g></g><g id="1hh2m31r4d"><g transform="translate(654.9 120)"><path d="M 79.92420196533203,0 L 0,57.50107169151306 L 79.92420196533203,115.00214338302612 L 159.84840393066406,57.50107169151306 L 79.92420196533203,0 Z" fill="rgba(255,255,255,1)" stroke="#ea5b67" stroke-width="2" stroke-linecap="round" stroke-linejoin="round"/></g><g transform="translate(679.824201965332, 152.00107169151306) rotate(0, 55, 25.5)" width="110" height="51"><text text-decoration="none" x="12" fill="rgb(75, 75, 75)" font-size="10pt" font-family="Lato"  y="14">Login/Register</text><text text-decoration="none" x="98" fill="rgb(75, 75, 75)" font-size="10pt" font-family="Lato"  y="14"></text><text text-decoration="none" x="48.5" fill="rgb(75, 75, 75)" font-size="10pt" font-family="Lato"  y="33">or</text><text text-decoration="none" x="61.5" fill="rgb(75, 75, 75)" font-size="10pt" font-family="Lato"  y="33"></text><text text-decoration="none" x="3" fill="rgb(75, 75, 75)" font-size="10pt" font-family="Lato"  y="55">Forgot&#160;</text><text text-decoration="none" x="46" fill="rgb(75, 75, 75)" font-size="10pt" font-family="Lato"  y="55">Password&#160;</text><text text-decoration="none" x="107" fill="#4b4b4b" font-size="10pt" font-family="noto_regular"  y="55"></text></g></g><g id="3iyvo4auj1"><g><path d="M 735,60 L 734.9,120" fill="none" stroke="#a0a0a0" stroke-width="2" stroke-linecap="round" stroke-linejoin="round"/><path d="M 734.9,120 L 741.4087603042029,113.05431653288086 M 734.9,120 L 728.4144280693881,113.0326593124895 Z" fill="rgb(255,255,255)" stroke="#a0a0a0" stroke-width="2" stroke-linecap="round" stroke-linejoin="round"/></g></g><g id="1t2xsgtwes"><g transform="translate(330 240)"><path d="M 25.00014305114746,50.00028610229492 L 25.000143051147464,50.00028610229492 L 25.000143051147464,50.00028610229492 A 25.00014305114746 25.00014305114746 0 0 1 3.552713678800501e-15 25.00014305114746 L 1.0658141036401503e-14,25.000143051147468 L 1.0658141036401503e-14,25.000143051147468 A 25.00014305114746 25.00014305114746 0 0 1 25.00014305114747 3.552713678800501e-15 L 110.00062227249146,0 L 110.00062227249146,3.552713678800501e-15 L 110.00062227249146,3.552713678800501e-15 A 25.00014305114746 25.00014305114746 0 0 1 135.00076532363892 25.000143051147464 L 135.00076532363892,25.000143051147457 L 135.00076532363892,25.000143051147457 A 25.00014305114746 25.00014305114746 0 0 1 110.00062227249146 50.00028610229492 L 25.00014305114746,50.00028610229492 Z" fill="rgba(229,185,111,1)" stroke="#e5b96f" stroke-width="1.5" stroke-linecap="round" stroke-linejoin="round"/></g><g transform="translate(336.00038266181946, 247.50014305114746) rotate(0, 61.5, 17.5)" width="123" height="35"><text text-decoration="none" x="6" fill="rgb(255, 255, 255)" font-size="10pt" font-family="Lato"  y="14">Enter&#160;</text><text text-decoration="none" x="41" fill="rgb(255, 255, 255)" font-size="10pt" font-family="Lato"  y="14">User&#160;</text><text text-decoration="none" x="71" fill="rgb(255, 255, 255)" font-size="10pt" font-family="Lato"  y="14">name&#160;</text><text text-decoration="none" x="108" fill="rgb(255, 255, 255)" font-size="10pt" font-family="Lato"  y="14">&#x26;&#160;</text><text text-decoration="none" x="31" fill="rgb(255, 255, 255)" font-size="10pt" font-family="Lato"  y="36">Password&#160;</text><text text-decoration="none" x="92" fill="#4b4b4b" font-size="10pt" font-family="noto_regular"  y="36"></text></g></g><g id="skr4lc6wkd"><mask id="e00fb" x="386" y="166" width="282.9" height="88" maskUnits="userSpaceOnUse"><rect x="386" y="166" width="282.9" height="88" fill="white" /><rect x="470.45" y="167.5" width="54" height="25" fill="black" /></mask><g mask="url(#e00fb)"><path d="M 654.9,180 L 400,180 L 400,240" fill="none" stroke="#a0a0a0" stroke-width="2" stroke-linecap="round" stroke-linejoin="round"/><path d="M 400,240 L 406.49717514124296,233.04347826086956 M 400,240 L 393.50282485875704,233.04347826086956 Z" fill="rgb(255,255,255)" stroke="#a0a0a0" stroke-width="2" stroke-linecap="round" stroke-linejoin="round"/></g><g transform="translate(473.45, 170.5)" width="48" height="19"><text text-decoration="none" x="2" fill="rgb(75, 75, 75)" font-size="10pt" font-family="Lato"  y="17">If&#160;</text><text text-decoration="none" x="13" fill="rgb(75, 75, 75)" font-size="10pt" font-family="Lato"  y="17">Login</text><text text-decoration="none" x="46" fill="#4b4b4b" font-size="10pt" font-family="noto_regular"  y="17"></text></g></g><g id="1n62dqio64"><g transform="translate(335 370)"><path d="M 65.00672698020935,0 L 0,47.50000536441803 L 65.00672698020935,95.00001072883606 L 130.0134539604187,47.50000536441803 L 65.00672698020935,0 Z" fill="rgba(255,255,255,1)" stroke="#ea5b67" stroke-width="2" stroke-linecap="round" stroke-linejoin="round"/></g><g transform="translate(341.00672698020935, 400.00000536441803) rotate(0, 59, 17.5)" width="118" height="35"><text text-decoration="none" x="5" fill="rgb(75, 75, 75)" font-size="10pt" font-family="Lato"  y="14">Correct&#160;</text><text text-decoration="none" x="52" fill="rgb(75, 75, 75)" font-size="10pt" font-family="Lato"  y="14">Username&#160;</text><text text-decoration="none" x="22.5" fill="rgb(75, 75, 75)" font-size="10pt" font-family="Lato"  y="36">&#x26;&#160;</text><text text-decoration="none" x="34.5" fill="rgb(75, 75, 75)" font-size="10pt" font-family="Lato"  y="36">Password&#160;</text><text text-decoration="none" x="95.5" fill="#4b4b4b" font-size="10pt" font-family="noto_regular"  y="36"></text></g></g><g id="4lbzqdj2kk"><g><path d="M 400,290 L 400,370" fill="none" stroke="#a0a0a0" stroke-width="2" stroke-linecap="round" stroke-linejoin="round"/><path d="M 400,370 L 406.49717514124296,363.04347826086956 M 400,370 L 393.50282485875704,363.04347826086956 Z" fill="rgb(255,255,255)" stroke="#a0a0a0" stroke-width="2" stroke-linecap="round" stroke-linejoin="round"/></g></g><g id="6t9vk48h8y"><g transform="translate(325 550)"><path d="M 25,50 L 25,50 L 25,50 A 25 25 0 0 1 0 25.000000000000004 L 0,25 L 0,25.000000000000004 A 25 25 0 0 1 25 0 L 125,0 L 125,0 L 125,0 A 25 25 0 0 1 150 25 L 150,25 L 150,25 A 25 25 0 0 1 125 50 L 25,50 Z" fill="rgba(229,185,111,1)" stroke="#e5b96f" stroke-width="1.5" stroke-linecap="round" stroke-linejoin="round"/></g><g transform="translate(343, 565.5) rotate(0, 57, 9.5)" width="114" height="19"><text text-decoration="none" x="3.5" fill="rgb(255, 255, 255)" font-size="10pt" font-family="Lato"  y="17">Go&#160;</text><text text-decoration="none" x="23.5" fill="rgb(255, 255, 255)" font-size="10pt" font-family="Lato"  y="17">To&#160;</text><text text-decoration="none" x="41.5" fill="rgb(255, 255, 255)" font-size="10pt" font-family="Lato"  y="17">Home&#160;</text><text text-decoration="none" x="81.5" fill="rgb(255, 255, 255)" font-size="10pt" font-family="Lato"  y="17">Page</text><text text-decoration="none" x="110.5" fill="#4b4b4b" font-size="10pt" font-family="noto_regular"  y="17"></text></g></g><g id="1h49alak4d"><mask id="6413c" x="386" y="451" width="28" height="113" maskUnits="userSpaceOnUse"><rect x="386" y="451" width="28" height="113" fill="white" /><rect x="377" y="495" width="46" height="25" fill="black" /></mask><g mask="url(#6413c)"><path d="M 400,465 L 400,550" fill="none" stroke="#a0a0a0" stroke-width="2" stroke-linecap="round" stroke-linejoin="round"/><path d="M 400,550 L 406.49717514124296,543.0434782608696 M 400,550 L 393.50282485875704,543.0434782608696 Z" fill="rgb(255,255,255)" stroke="#a0a0a0" stroke-width="2" stroke-linecap="round" stroke-linejoin="round"/></g><g transform="translate(380, 498)" width="40" height="19"><text text-decoration="none" x="1" fill="rgb(75, 75, 75)" font-size="10pt" font-family="Lato"  y="17">If&#160;</text><text text-decoration="none" x="12" fill="rgb(75, 75, 75)" font-size="10pt" font-family="Lato"  y="17">True</text><text text-decoration="none" x="39" fill="#4b4b4b" font-size="10pt" font-family="noto_regular"  y="17"></text></g></g><g id="293vk232mm"><mask id="2f57c" x="452" y="252" width="46" height="181" maskUnits="userSpaceOnUse"><rect x="452" y="252" width="46" height="181" fill="white" /><rect x="459" y="340.3723404255319" width="52" height="25" fill="black" /></mask><g mask="url(#2f57c)"><path d="M 465,420 L 485,420 L 485,342.5 L 485,265 L 465,265" fill="none" stroke="#cccccc" stroke-width="1.5" stroke-linecap="round" stroke-linejoin="round"/><path d="M 465,265 L 471.95652173913044,271.49717514124296 M 465,265 L 471.95652173913044,258.50282485875704 Z" fill="rgb(255,255,255)" stroke="#cccccc" stroke-width="1.5" stroke-linecap="round" stroke-linejoin="round"/></g><g transform="translate(462, 343.3723404255319)" width="46" height="19"><text text-decoration="none" x="2.5" fill="rgb(75, 75, 75)" font-size="10pt" font-family="Lato"  y="17">If&#160;</text><text text-decoration="none" x="13.5" fill="rgb(75, 75, 75)" font-size="10pt" font-family="Lato"  y="17">False</text><text text-decoration="none" x="43.5" fill="#4b4b4b" font-size="10pt" font-family="noto_regular"  y="17"></text></g></g><g id="6r7thru3ip"><g transform="translate(660.026923076923 300)"><path d="M 25,50 L 25,50 L 25,50 A 25 25 0 0 1 0 25.000000000000004 L 0,25 L 0,25.000000000000004 A 25 25 0 0 1 25 0 L 125,0 L 125,0 L 125,0 A 25 25 0 0 1 150 25 L 150,25 L 150,25 A 25 25 0 0 1 125 50 L 25,50 Z" fill="rgba(229,185,111,1)" stroke="#e5b96f" stroke-width="1.5" stroke-linecap="round" stroke-linejoin="round"/></g><g transform="translate(671.026923076923, 315.5) rotate(0, 64, 9.5)" width="128" height="19"><text text-decoration="none" x="6.5" fill="rgb(255, 255, 255)" font-size="10pt" font-family="Lato"  y="17">Register&#160;</text><text text-decoration="none" x="57.5" fill="rgb(255, 255, 255)" font-size="10pt" font-family="Lato"  y="17">a&#160;</text><text text-decoration="none" x="67.5" fill="rgb(255, 255, 255)" font-size="10pt" font-family="Lato"  y="17">new&#160;</text><text text-decoration="none" x="95.5" fill="rgb(255, 255, 255)" font-size="10pt" font-family="Lato"  y="17">user</text><text text-decoration="none" x="121.5" fill="#4b4b4b" font-size="10pt" font-family="noto_regular"  y="17"></text></g></g><g id="iyplb2wweo"><mask id="5c7e5" x="720.9" y="221" width="28.12692307692305" height="93" maskUnits="userSpaceOnUse"><rect x="720.9" y="221" width="28.12692307692305" height="93" fill="white" /><rect x="698.9623898469484" y="255.00107169151306" width="72" height="25" fill="black" /></mask><g mask="url(#5c7e5)"><path d="M 734.9,235 L 734.9,267.50107169151306 L 734.9634615384615,267.50107169151306 L 735.026923076923,267.50107169151306 L 735.026923076923,300" fill="none" stroke="#a0a0a0" stroke-width="2" stroke-linecap="round" stroke-linejoin="round"/><path d="M 735.026923076923,300 L 741.5240982181659,293.04347826086956 M 735.026923076923,300 L 728.5297479356801,293.04347826086956 Z" fill="rgb(255,255,255)" stroke="#a0a0a0" stroke-width="2" stroke-linecap="round" stroke-linejoin="round"/></g><g transform="translate(701.9623898469484, 258.00107169151306)" width="66" height="19"><text text-decoration="none" x="3.5" fill="rgb(75, 75, 75)" font-size="10pt" font-family="Lato"  y="17">If&#160;</text><text text-decoration="none" x="14.5" fill="rgb(75, 75, 75)" font-size="10pt" font-family="Lato"  y="17">Register</text><text text-decoration="none" x="62.5" fill="#4b4b4b" font-size="10pt" font-family="noto_regular"  y="17"></text></g></g><g id="6fnxfbs7b6"><g><path d="M 735.026923076923,350 L 735.026923076923,370 L 648.770383638602,370 L 562.513844200281,370 L 562.513844200281,317.5 L 562.513844200281,265 L 465,265" fill="none" stroke="#a0a0a0" stroke-width="2" stroke-linecap="round" stroke-linejoin="round"/><path d="M 465,265 L 471.95652173913044,271.49717514124296 M 465,265 L 471.95652173913044,258.50282485875704 Z" fill="rgb(255,255,255)" stroke="#a0a0a0" stroke-width="2" stroke-linecap="round" stroke-linejoin="round"/></g></g><g id="1sdxqn6td0"><g transform="translate(950.0346153846153 240)"><path d="M 25,50 L 25,50 L 25,50 A 25 25 0 0 1 0 25.000000000000004 L 0,25 L 0,25.000000000000004 A 25 25 0 0 1 25 0 L 125,0 L 125,0 L 125,0 A 25 25 0 0 1 150 25 L 150,25 L 150,25 A 25 25 0 0 1 125 50 L 25,50 Z" fill="rgba(229,185,111,1)" stroke="#e5b96f" stroke-width="1.5" stroke-linecap="round" stroke-linejoin="round"/></g><g transform="translate(951.0346153846153, 247.5) rotate(0, 74, 17.5)" width="148" height="35"><text text-decoration="none" x="7.5" fill="rgb(255, 255, 255)" font-size="10pt" font-family="Lato"  y="14">Enter&#160;</text><text text-decoration="none" x="42.5" fill="rgb(255, 255, 255)" font-size="10pt" font-family="Lato"  y="14">Registered&#160;</text><text text-decoration="none" x="108.5" fill="rgb(255, 255, 255)" font-size="10pt" font-family="Lato"  y="14">Email&#160;</text><text text-decoration="none" x="37" fill="rgb(255, 255, 255)" font-size="10pt" font-family="Lato"  y="36">or&#160;</text><text text-decoration="none" x="53" fill="rgb(255, 255, 255)" font-size="10pt" font-family="Lato"  y="36">Phone&#160;</text><text text-decoration="none" x="95" fill="rgb(255, 255, 255)" font-size="10pt" font-family="Lato"  y="36">no</text><text text-decoration="none" x="111" fill="#4b4b4b" font-size="10pt" font-family="noto_regular"  y="36"></text></g></g><g id="1nv92oqimm"><g><path d="M 814.9,180 L 1025.0346153846153,180 L 1025.0346153846153,240" fill="none" stroke="#a0a0a0" stroke-width="2" stroke-linecap="round" stroke-linejoin="round"/><path d="M 1025.0346153846153,240 L 1031.5317905258582,233.04347826086956 M 1025.0346153846153,240 L 1018.5374402433724,233.04347826086956 Z" fill="rgb(255,255,255)" stroke="#a0a0a0" stroke-width="2" stroke-linecap="round" stroke-linejoin="round"/></g></g><g id="23yygn4nyb"><g transform="translate(960 335)"><path d="M 64.99999761581421,0 L 0,45.00000476837158 L 64.99999761581421,90.00000953674316 L 129.99999523162842,45.00000476837158 L 64.99999761581421,0 Z" fill="rgba(255,255,255,1)" stroke="#ea5b67" stroke-width="2" stroke-linecap="round" stroke-linejoin="round"/></g><g transform="translate(961.4999976158142, 362.5000047683716) rotate(0, 63.5, 17.5)" width="127" height="35"><text text-decoration="none" x="6.5" fill="rgb(75, 75, 75)" font-size="10pt" font-family="Lato"  y="14">Registered&#160;</text><text text-decoration="none" x="72.5" fill="rgb(75, 75, 75)" font-size="10pt" font-family="Lato"  y="14">Email&#160;</text><text text-decoration="none" x="107.5" fill="rgb(75, 75, 75)" font-size="10pt" font-family="Lato"  y="14">or&#160;</text><text text-decoration="none" x="30" fill="rgb(75, 75, 75)" font-size="10pt" font-family="Lato"  y="36">Phone&#160;</text><text text-decoration="none" x="72" fill="rgb(75, 75, 75)" font-size="10pt" font-family="Lato"  y="36">no?&#160;</text><text text-decoration="none" x="97" fill="#4b4b4b" font-size="10pt" font-family="noto_regular"  y="36"></text></g></g><g id="1i2pawfvas"><g><path d="M 1025.0346153846153,290 L 1025.0346153846153,312.5 L 1025.0173076923077,312.5 L 1025,312.5 L 1025,335" fill="none" stroke="#a0a0a0" stroke-width="2" stroke-linecap="round" stroke-linejoin="round"/><path d="M 1025,335 L 1031.497175141243,328.04347826086956 M 1025,335 L 1018.5028248587571,328.04347826086956 Z" fill="rgb(255,255,255)" stroke="#a0a0a0" stroke-width="2" stroke-linecap="round" stroke-linejoin="round"/></g></g><g id="1pdr09rl1j"><mask id="7235a" x="1077" y="252" width="56.034615384615336" height="141" maskUnits="userSpaceOnUse"><rect x="1077" y="252" width="56.034615384615336" height="141" fill="white" /><rect x="1062.5346153846153" y="318.48362685081884" width="115" height="25" fill="black" /></mask><g mask="url(#7235a)"><path d="M 1090,380 L 1120.0346153846153,380 L 1120.0346153846153,322.5 L 1120.0346153846153,265 L 1100.0346153846153,265" fill="none" stroke="#cccccc" stroke-width="1.5" stroke-linecap="round" stroke-linejoin="round"/><path d="M 1100.0346153846153,265 L 1106.9911371237458,271.49717514124296 M 1100.0346153846153,265 L 1106.9911371237458,258.50282485875704 Z" fill="rgb(255,255,255)" stroke="#cccccc" stroke-width="1.5" stroke-linecap="round" stroke-linejoin="round"/></g><g transform="translate(1065.5346153846153, 321.48362685081884)" width="109" height="19"><text text-decoration="none" x="4.5" fill="rgb(75, 75, 75)" font-size="10pt" font-family="Lato"  y="17">If&#160;</text><text text-decoration="none" x="15.5" fill="rgb(75, 75, 75)" font-size="10pt" font-family="Lato"  y="17">Not&#160;</text><text text-decoration="none" x="41.5" fill="rgb(75, 75, 75)" font-size="10pt" font-family="Lato"  y="17">Registered</text><text text-decoration="none" x="104.5" fill="#4b4b4b" font-size="10pt" font-family="noto_regular"  y="17"></text></g></g><g id="vdkiqsoh82"><g transform="translate(950 485)"><path d="M 25,50 L 25,50 L 25,50 A 25 25 0 0 1 0 25.000000000000004 L 0,25 L 0,25.000000000000004 A 25 25 0 0 1 25 0 L 125,0 L 125,0 L 125,0 A 25 25 0 0 1 150 25 L 150,25 L 150,25 A 25 25 0 0 1 125 50 L 25,50 Z" fill="rgba(229,185,111,1)" stroke="#e5b96f" stroke-width="1.5" stroke-linecap="round" stroke-linejoin="round"/></g><g transform="translate(950, 500.5) rotate(0, 75, 9.5)" width="150" height="19"><text text-decoration="none" x="6" fill="rgb(255, 255, 255)" font-size="10pt" font-family="Lato"  y="17">Send&#160;</text><text text-decoration="none" x="39" fill="rgb(255, 255, 255)" font-size="10pt" font-family="Lato"  y="17">Reset&#160;</text><text text-decoration="none" x="75" fill="rgb(255, 255, 255)" font-size="10pt" font-family="Lato"  y="17">Link&#160;</text><text text-decoration="none" x="103" fill="rgb(255, 255, 255)" font-size="10pt" font-family="Lato"  y="17">or&#160;</text><text text-decoration="none" x="119" fill="rgb(255, 255, 255)" font-size="10pt" font-family="Lato"  y="17">OTP</text><text text-decoration="none" x="144" fill="#4b4b4b" font-size="10pt" font-family="noto_regular"  y="17"></text></g></g><g id="2kyc8b6l7x"><g><path d="M 1025,425 L 1025,485" fill="none" stroke="#a0a0a0" stroke-width="2" stroke-linecap="round" stroke-linejoin="round"/><path d="M 1025,485 L 1031.497175141243,478.04347826086956 M 1025,485 L 1018.5028248587571,478.04347826086956 Z" fill="rgb(255,255,255)" stroke="#a0a0a0" stroke-width="2" stroke-linecap="round" stroke-linejoin="round"/></g></g><g id="57igpky4g9"><g transform="translate(970 600)"><path d="M 55.000001192092896,0 L 0,37.50000298023224 L 55.000001192092896,75.00000596046448 L 110.00000238418579,37.50000298023224 L 55.000001192092896,0 Z" fill="rgba(255,255,255,1)" stroke="#ea5b67" stroke-width="2" stroke-linecap="round" stroke-linejoin="round"/></g><g transform="translate(985.0000011920929, 620.0000029802322) rotate(0, 40, 17.5)" width="80" height="35"><text text-decoration="none" x="6.5" fill="rgb(75, 75, 75)" font-size="10pt" font-family="Lato"  y="14">verification&#160;</text><text text-decoration="none" x="5" fill="rgb(75, 75, 75)" font-size="10pt" font-family="Lato"  y="36">Successful?&#160;</text><text text-decoration="none" x="75" fill="#4b4b4b" font-size="10pt" font-family="noto_regular"  y="36"></text></g></g><g id="1hvtt6250k"><g><path d="M 1025,535 L 1025,600" fill="none" stroke="#a0a0a0" stroke-width="2" stroke-linecap="round" stroke-linejoin="round"/><path d="M 1025,600 L 1031.497175141243,593.0434782608696 M 1025,600 L 1018.5028248587571,593.0434782608696 Z" fill="rgb(255,255,255)" stroke="#a0a0a0" stroke-width="2" stroke-linecap="round" stroke-linejoin="round"/></g></g><g id="1t8e7sw0ju"><mask id="b6a22" x="720.9" y="86" width="588.1" height="568" maskUnits="userSpaceOnUse"><rect x="720.9" y="86" width="588.1" height="568" fill="white" /><rect x="1272.5" y="541.4819396910555" width="45" height="25" fill="black" /></mask><g mask="url(#b6a22)"><path d="M 1080,640 L 1295,640 L 1295,370 L 1295,100 L 1014.95,100 L 734.9,100 L 734.9,120" fill="none" stroke="#a0a0a0" stroke-width="2" stroke-linecap="round" stroke-linejoin="round"/><path d="M 734.9,120 L 741.3971751412429,113.04347826086956 M 734.9,120 L 728.4028248587571,113.04347826086956 Z" fill="rgb(255,255,255)" stroke="#a0a0a0" stroke-width="2" stroke-linecap="round" stroke-linejoin="round"/></g><g transform="translate(1275.5, 544.4819396910555)" width="39" height="19"><text text-decoration="none" x="1.5" fill="rgb(75, 75, 75)" font-size="10pt" font-family="Lato"  y="17">If&#160;</text><text text-decoration="none" x="12.5" fill="rgb(75, 75, 75)" font-size="10pt" font-family="Lato"  y="17">true</text><text text-decoration="none" x="37.5" fill="#4b4b4b" font-size="10pt" font-family="noto_regular"  y="17"></text></g></g><g id="1kxnsepmd5"><g transform="translate(950 735)"><path d="M 25,50 L 25,50 L 25,50 A 25 25 0 0 1 0 25.000000000000004 L 0,25 L 0,25.000000000000004 A 25 25 0 0 1 25 0 L 125,0 L 125,0 L 125,0 A 25 25 0 0 1 150 25 L 150,25 L 150,25 A 25 25 0 0 1 125 50 L 25,50 Z" fill="rgba(229,185,111,1)" stroke="#e5b96f" stroke-width="1.5" stroke-linecap="round" stroke-linejoin="round"/></g><g transform="translate(971.5, 750.5) rotate(0, 53.5, 9.5)" width="107" height="19"><text text-decoration="none" x="5.5" fill="rgb(255, 255, 255)" font-size="10pt" font-family="Lato"  y="17">Please&#160;</text><text text-decoration="none" x="46.5" fill="rgb(255, 255, 255)" font-size="10pt" font-family="Lato"  y="17">Try&#160;</text><text text-decoration="none" x="68.5" fill="rgb(255, 255, 255)" font-size="10pt" font-family="Lato"  y="17">Again</text><text text-decoration="none" x="101.5" fill="#4b4b4b" font-size="10pt" font-family="noto_regular"  y="17"></text></g></g><g id="wbit0vaedr"><mask id="55e97" x="1011" y="661" width="28" height="88" maskUnits="userSpaceOnUse"><rect x="1011" y="661" width="28" height="88" fill="white" /><rect x="999" y="692.5" width="52" height="25" fill="black" /></mask><g mask="url(#55e97)"><path d="M 1025,675 L 1025,735" fill="none" stroke="#a0a0a0" stroke-width="2" stroke-linecap="round" stroke-linejoin="round"/><path d="M 1025,735 L 1031.497175141243,728.0434782608696 M 1025,735 L 1018.5028248587571,728.0434782608696 Z" fill="rgb(255,255,255)" stroke="#a0a0a0" stroke-width="2" stroke-linecap="round" stroke-linejoin="round"/></g><g transform="translate(1002, 695.5)" width="46" height="19"><text text-decoration="none" x="2.5" fill="rgb(75, 75, 75)" font-size="10pt" font-family="Lato"  y="17">If&#160;</text><text text-decoration="none" x="13.5" fill="rgb(75, 75, 75)" font-size="10pt" font-family="Lato"  y="17">False</text><text text-decoration="none" x="43.5" fill="#4b4b4b" font-size="10pt" font-family="noto_regular"  y="17"></text></g></g><g id="2zz71f7xq7"><mask id="2bc24" x="1086" y="251" width="143" height="523" maskUnits="userSpaceOnUse"><rect x="1086" y="251" width="143" height="523" fill="white" /><rect x="1194.5" y="717.5534668760856" width="41" height="25" fill="black" /></mask><g mask="url(#2bc24)"><path d="M 1100,760 L 1215,760 L 1215,512.5 L 1215,265 L 1100.0346153846153,265" fill="none" stroke="#a0a0a0" stroke-width="2" stroke-linecap="round" stroke-linejoin="round"/><path d="M 1100.0346153846153,265 L 1106.9911371237458,271.49717514124296 M 1100.0346153846153,265 L 1106.9911371237458,258.50282485875704 Z" fill="rgb(255,255,255)" stroke="#a0a0a0" stroke-width="2" stroke-linecap="round" stroke-linejoin="round"/></g><g transform="translate(1197.5, 720.5534668760856)" width="35" height="19"><text text-decoration="none" x="1" fill="rgb(75, 75, 75)" font-size="10pt" font-family="Lato"  y="17">Go&#160;</text><text text-decoration="none" x="21" fill="rgb(75, 75, 75)" font-size="10pt" font-family="Lato"  y="17">to</text><text text-decoration="none" x="34" fill="#4b4b4b" font-size="10pt" font-family="noto_regular"  y="17"></text></g></g></svg>